<svg
      width="407"
      height="90"
      viewBox="0 0 407 90"
      fill="none"
      xmlns="http://www.w3.org/2000/svg"
    >
      <path
        fillRule="evenodd"
        clipRule="evenodd"
        d="M69.0925 73.854V88.8934H0V76.9392L43.4952 24.6858H0.961991V9.64776H67.5527V21.602L24.2497 73.854H69.0925Z"
        fill="#2C3687"
      />
      <path
        fillRule="evenodd"
        clipRule="evenodd"
        d="M80.6391 16.7822C79.6696 15.9043 78.8947 14.8331 78.3644 13.6375C77.834 12.4419 77.5601 11.1485 77.5601 9.8406C77.5601 8.53268 77.834 7.23926 78.3644 6.04368C78.8947 4.8481 79.6696 3.77687 80.6391 2.89901C82.7871 0.93549 85.622 -0.103091 88.53 0.00808868C91.803 0.00808868 94.4969 0.971492 96.4209 2.70689C97.4212 3.51679 98.22 4.54777 98.7544 5.7187C99.2887 6.88964 99.5441 8.1686 99.5004 9.45496C99.5472 10.8263 99.2962 12.1915 98.7645 13.4564C98.2329 14.7214 97.4333 15.8561 96.4209 16.7822C94.273 18.7455 91.4379 19.7834 88.53 19.671C85.2591 19.4789 82.5652 18.5155 80.6391 16.7801V16.7822ZM79.6772 27.9645H97.3843V88.8934H79.6772V27.9645Z"
        fill="#2C3687"
      />
      <path
        fillRule="evenodd"
        clipRule="evenodd"
        d="M168.785 33.9427C173.405 38.3769 175.714 45.1249 175.714 53.994V88.6999H158.007V56.5007C158.007 51.6802 156.851 48.0173 154.927 45.7041C153.003 43.391 149.73 42.0391 145.881 42.0391C141.455 42.0391 137.99 43.3888 135.296 46.0876C132.602 48.7864 131.255 53.0292 131.255 58.4297V88.5078H113.738V27.5817H130.482V34.7154C132.875 32.0856 135.84 30.0401 139.149 28.7365C142.769 27.3317 146.62 26.6132 150.504 26.6175C158.007 27.0011 164.167 29.3142 168.785 33.9427Z"
        fill="#2C3687"
      />
      <path
        fillRule="evenodd"
        clipRule="evenodd"
        d="M328.721 5.02003V88.8941H311.974V81.9525C307.547 87.1587 301.389 89.8575 292.921 89.8575C287.485 89.8859 282.128 88.5606 277.333 86.0011C272.705 83.5198 268.945 79.6858 266.554 75.0109C263.779 69.933 262.386 64.2156 262.513 58.4303C262.386 52.6448 263.779 46.9273 266.554 41.8491C269.111 37.2966 272.831 33.5042 277.333 30.8589C282.12 28.2773 287.482 26.9506 292.921 27.0025C300.62 27.0025 306.779 29.5099 311.012 34.3297V4.82862H328.721V5.02003ZM307.166 70.576C310.052 67.4909 311.593 63.4423 311.593 58.2361C311.593 53.2213 310.052 48.9835 307.166 45.8962C304.28 42.8089 300.622 41.2699 296.002 41.2699C291.383 41.2699 287.727 42.811 284.843 45.8962C281.959 48.9814 280.41 53.0299 280.41 58.2354C280.41 63.4409 281.948 67.488 284.836 70.5753C286.266 72.0887 287.999 73.2833 289.922 74.0809C291.845 74.8785 293.915 75.2611 295.996 75.2038C298.076 75.2434 300.142 74.8528 302.064 74.0564C303.985 73.26 305.722 72.0751 307.164 70.576H307.166Z"
        fill="#EA7A26"
      />
      <path
        fillRule="evenodd"
        clipRule="evenodd"
        d="M406.278 27.9644V88.8934H389.535V81.5662C387.231 84.2082 384.327 86.2593 381.067 87.5472C377.776 88.9321 374.244 89.6523 370.673 89.6661C362.783 89.6661 356.432 87.3522 351.621 82.7245C346.809 78.0961 344.692 71.3487 344.692 62.2854V27.9644H362.398V59.7794C362.398 69.6119 366.441 74.4325 374.715 74.4325C376.603 74.5025 378.486 74.1787 380.242 73.4817C381.998 72.7846 383.59 71.7297 384.917 70.3839C387.417 67.6851 388.765 63.4423 388.765 58.044V27.9644H406.278Z"
        fill="#EA7A26"
      />
      <path
        d="M252.504 9.64776H192.843V24.3015H252.504V9.64776Z"
        fill="#EA7A26"
      />
      <path
        d="M247.693 41.6549H192.843V55.923H247.693V41.6549Z"
        fill="#EA7A26"
      />
      <path
        d="M254.044 74.0468H192.843V88.7006H254.044V74.0468Z"
        fill="#EA7A26"
      />
    </svg>