<svg width="55" height="57" viewBox="0 0 55 57" fill="none" xmlns="http://www.w3.org/2000/svg">
<path d="M27.5 56.8008C22.061 56.8008 16.7442 55.1485 12.2218 52.0528C7.69948 48.9571 4.17474 44.5571 2.09333 39.4092C0.0119174 34.2613 -0.532677 28.5967 0.528416 23.1317C1.58951 17.6667 4.20863 12.6468 8.05457 8.70673C11.9005 4.76669 16.8005 2.08348 22.135 0.996423C27.4695 -0.090632 32.9988 0.467287 38.0238 2.59962C43.0488 4.73196 47.3437 8.34295 50.3654 12.9759C53.3872 17.6089 55 23.0559 55 28.6279C54.9915 36.0972 52.0915 43.258 46.9361 48.5396C41.7807 53.8211 34.7909 56.7921 27.5 56.8008ZM27.5 3.48035C22.6453 3.48035 17.8995 4.95516 13.863 7.7183C9.82641 10.4814 6.68028 14.4088 4.82245 19.0037C2.96462 23.5987 2.47855 28.6548 3.42566 33.5328C4.37278 38.4107 6.71056 42.8914 10.1434 46.4082C13.5762 49.925 17.9499 52.32 22.7113 53.2903C27.4728 54.2606 32.4081 53.7626 36.8933 51.8593C41.3785 49.956 45.2121 46.7329 47.9093 42.5976C50.6064 38.4623 52.046 33.6004 52.046 28.6269C52.0386 21.96 49.4501 15.5682 44.8485 10.854C40.2468 6.13974 34.0077 3.48794 27.5 3.48035Z" fill="#4C4C4C"/>
<path fill-rule="evenodd" clip-rule="evenodd" d="M28.7964 10.2882C25.8127 10.2877 22.8841 11.1111 20.3186 12.6718C17.753 14.2324 15.6455 16.4726 14.2178 19.1566C12.79 21.8406 12.0948 24.8693 12.2053 27.9239C12.3157 30.9785 13.2277 33.9462 14.8454 36.5146L12.3234 42.2055C12.223 42.4317 12.1796 42.6802 12.1972 42.928C12.2148 43.1759 12.2929 43.4152 12.4242 43.6242C12.5556 43.8331 12.7361 44.0049 12.9491 44.1238C13.1621 44.2427 13.4008 44.3049 13.6434 44.3047C13.7731 44.3047 13.9022 44.2871 14.0274 44.2524L20.9764 42.2998C23.202 43.5151 25.6686 44.1949 28.1889 44.2876C30.7093 44.3803 33.2172 43.8834 35.5221 42.8348C37.827 41.7861 39.8684 40.2132 41.4912 38.2355C43.1141 36.2577 44.2757 33.9272 44.8879 31.4208C45.5002 28.9144 45.5469 26.298 45.0246 23.7703C44.5023 21.2427 43.4247 18.8701 41.8736 16.8329C40.3225 14.7956 38.3386 13.1472 36.0727 12.0129C33.8068 10.8785 31.3184 10.288 28.7964 10.2861V10.2882ZM28.7964 41.3368C26.3718 41.337 23.9907 40.6777 21.8964 39.4262C21.6745 39.2924 21.4218 39.2217 21.1644 39.2213C21.0347 39.2212 20.9056 39.2388 20.7804 39.2735L16.2414 40.55L17.8224 36.9808C17.928 36.7426 17.9704 36.48 17.9451 36.2197C17.9198 35.9594 17.8278 35.7105 17.6784 35.4983C15.883 32.9413 14.9794 29.8398 15.113 26.6929C15.2465 23.546 16.4095 20.5366 18.4147 18.1488C20.42 15.7611 23.151 14.1338 26.1684 13.5287C29.1858 12.9237 32.3142 13.376 35.0502 14.8131C37.7862 16.2501 39.9709 18.5883 41.2527 21.4514C42.5345 24.3145 42.8389 27.5361 42.117 30.5979C41.3951 33.6598 39.6889 36.3838 37.2727 38.3318C34.8566 40.2799 31.871 41.3386 28.7964 41.3378V41.3368Z" fill="#4C4C4C"/>
<path fill-rule="evenodd" clip-rule="evenodd" d="M35.1801 29.845C34.8445 29.5704 34.4523 29.3775 34.0333 29.2808C33.6143 29.1841 33.1793 29.1861 32.7612 29.2866C32.1332 29.5499 31.7312 30.5569 31.3242 31.0722C31.2374 31.1936 31.1102 31.2782 30.9666 31.3099C30.823 31.3416 30.6731 31.3183 30.5452 31.2444C28.2469 30.3221 26.3201 28.6315 25.0772 26.4468C24.9717 26.3089 24.9218 26.1348 24.9376 25.9603C24.9534 25.7859 25.0337 25.6242 25.1622 25.5084C25.627 25.0548 25.9692 24.4855 26.1552 23.856C26.1901 23.1743 26.0361 22.4963 25.7112 21.9003C25.4542 21.0517 24.9649 20.2964 24.3012 19.7244C23.9589 19.5616 23.5777 19.5052 23.2045 19.562C22.8313 19.6188 22.4824 19.7864 22.2012 20.044C21.7185 20.47 21.3353 21.0015 21.0799 21.5994C20.8244 22.1972 20.7032 22.8462 20.7252 23.4985C20.7289 23.8678 20.7735 24.2356 20.8582 24.5946C21.083 25.45 21.429 26.267 21.8852 27.0195C22.2137 27.595 22.5715 28.1524 22.9572 28.6894C24.2138 30.457 25.7925 31.9588 27.6062 33.1119C28.517 33.6944 29.49 34.1681 30.5062 34.5236C31.5627 35.0135 32.7287 35.2022 33.8812 35.0697C34.5378 34.9651 35.1597 34.6982 35.6929 34.2919C36.2261 33.8856 36.6546 33.3522 36.9412 32.738C37.1043 32.3649 37.1538 31.95 37.0832 31.5476C36.9112 30.729 35.8281 30.2414 35.1801 29.845Z" fill="#4C4C4C"/>
</svg>
