<svg width="1241" height="439" viewBox="0 0 1241 439" fill="none" xmlns="http://www.w3.org/2000/svg">
<rect width="1241" height="439" rx="23" fill="#FFF1E8"/>
<mask id="mask0" style="mask-type:alpha" maskUnits="userSpaceOnUse" x="0" y="0" width="1241" height="439">
<rect width="1241" height="439" rx="23" fill="#FFF1E8"/>
</mask>
<g mask="url(#mask0)">
<path d="M1020.66 35.9586C1019.52 37.9847 1020.76 40.4135 1022.96 41.1644V41.1644C1025.16 41.9173 1027.56 40.6137 1029.36 39.1318C1030.83 37.9205 1033.05 37.0912 1036.26 38.159C1039.85 39.3233 1040.91 42.3313 1041.11 44.466C1041.3 46.8918 1040.14 49.2205 1038.29 50.676C1038 50.9128 1037.69 51.1354 1037.34 51.3364C1032.69 54.0425 1025.92 55.3219 1024.16 60.4106L1022.67 64.7022C1021.92 66.8695 1023.07 69.2342 1025.24 69.9834V69.9834C1027.41 70.734 1029.78 69.5785 1030.52 67.4051L1031.2 65.4395C1032.12 62.7479 1034.79 61.0415 1037.55 60.3609C1041.39 59.4154 1046.53 56.8035 1048.97 49.7057C1052.95 38.0619 1043.53 31.7549 1039.07 30.2024C1035.94 29.0722 1026.03 26.3838 1020.66 35.9586Z" fill="#EB7926"/>
<path d="M1024.19 73.7792L1023.64 73.5891C1021.58 72.8803 1019.35 73.9686 1018.64 76.0201C1017.93 78.0715 1019.02 80.3091 1021.07 81.0179L1021.62 81.2081C1023.67 81.9169 1025.91 80.8285 1026.62 78.7771C1027.33 76.7257 1026.24 74.4881 1024.19 73.7792Z" fill="#EB7926"/>
<path d="M976.046 145.428C976.175 146.755 977.556 147.49 978.836 147.116V147.116C980.128 146.74 980.822 145.315 981.182 144.018C981.471 142.975 982.242 141.863 984.091 141.29C986.226 140.611 987.681 141.678 988.458 142.649C989.331 143.716 989.622 145.171 989.234 146.53C989.176 146.76 989.095 146.993 988.988 147.223C987.694 150.011 984.957 152.797 985.804 155.751L986.533 158.288C986.898 159.561 988.232 160.291 989.501 159.913V159.913C990.751 159.541 991.468 158.232 991.11 156.977L990.776 155.81C990.325 154.23 991.024 152.538 992.093 151.29C993.564 149.572 995.079 146.64 993.891 142.454C991.951 135.662 985.353 135.856 982.733 136.633C980.994 137.154 975.439 139.156 976.046 145.428Z" fill="#EB7926"/>
<path d="M990.199 162.013L989.919 162.094C988.709 162.444 988.013 163.709 988.362 164.918C988.712 166.128 989.977 166.825 991.187 166.475L991.466 166.394C992.676 166.044 993.373 164.78 993.023 163.57C992.673 162.36 991.409 161.663 990.199 162.013Z" fill="#EB7926"/>
<path d="M1184.24 138.556C1184.65 136.561 1182.98 134.856 1180.94 134.802V134.802C1178.9 134.748 1177.22 136.468 1176.11 138.187C1175.19 139.604 1173.53 140.915 1170.55 140.915C1167.15 140.915 1165.5 138.586 1164.82 136.937C1164.05 134.996 1164.34 132.764 1165.5 130.921C1165.69 130.634 1165.91 130.35 1166.16 130.078C1169.38 126.601 1174.75 123.739 1174.89 119.006L1175 115.116C1175.06 113.075 1173.45 111.374 1171.41 111.32V111.32C1169.38 111.267 1167.68 112.867 1167.62 114.899L1167.57 116.732C1167.49 119.257 1165.67 121.407 1163.52 122.72C1160.54 124.53 1156.94 128.082 1156.77 134.705C1156.48 145.572 1166.18 148.386 1170.26 148.483C1173.22 148.483 1182.27 148.093 1184.24 138.556Z" fill="#EB7926"/>
<path d="M1171.26 107.788L1171.74 107.801C1173.67 107.854 1175.28 106.334 1175.33 104.406C1175.39 102.477 1173.86 100.871 1171.94 100.817L1171.45 100.804C1169.52 100.751 1167.92 102.271 1167.86 104.199C1167.81 106.128 1169.33 107.734 1171.26 107.788Z" fill="#EB7926"/>
<path d="M1246.8 115.081C1246.52 115.237 1246.17 115.099 1246.1 114.785C1242.81 99.6685 1227.71 54.2049 1165.21 56.789C1133.77 58.1474 1116.4 72.9931 1107.38 85.2191C1097.9 98.0738 1095.32 110.838 1095.16 111.754C1095.16 111.789 1095.15 111.823 1095.14 111.858V111.858C1095.09 112.055 1094.91 112.194 1094.71 112.194H1060.42C1060.15 112.194 1059.93 111.976 1059.93 111.709V111.709C1059.93 111.614 1059.93 97.9554 1061.39 90.6409C1061.44 90.3758 1061.7 90.2102 1061.96 90.2632V90.2632C1062.23 90.3174 1062.41 90.5805 1062.35 90.8514C1061.82 93.5581 1061.5 97.1518 1061.29 100.587C1060.95 106.335 1065.69 111.126 1071.45 111.126H1079.57C1088.08 111.126 1095.36 105.067 1098.94 97.3454C1100.76 93.4076 1103.22 88.9865 1106.51 84.5398C1115.63 72.1199 1133.29 56.983 1165.11 55.6246C1191.12 54.5573 1211.88 61.6405 1226.83 76.6803C1240.13 90.0858 1245.22 106.043 1247.03 114.573C1247.08 114.777 1246.98 114.98 1246.8 115.081V115.081Z" fill="#EB7926"/>
<path d="M1188.01 340.216H1158.52C1145.82 340.216 1135.52 329.919 1135.52 317.216V191.282C1135.52 190.973 1135.8 190.738 1136.1 190.789V190.789C1185.68 199.521 1207.22 177.592 1215.67 163.717C1225.56 147.319 1227.31 127.524 1220.32 110.835C1215.96 100.55 1202.37 76.5832 1169.19 77.1654C1152.98 77.4565 1131.15 82.5991 1119.31 105.401C1112.23 119.083 1112.13 132.861 1112.13 132.958V132.958C1112.13 133.226 1111.92 133.443 1111.65 133.443H1046.74C1046.47 133.443 1046.25 133.226 1046.25 132.958V132.958C1046.15 127.427 1046.25 108.603 1046.25 108.409V108.409C1046.25 108.098 1046.52 107.856 1046.83 107.889L1050.76 108.31C1052.83 108.532 1054.4 110.28 1054.4 112.362V114.389C1054.4 117.89 1057.24 120.726 1060.74 120.719L1083.13 120.674C1094.08 120.651 1103.24 112.739 1107.9 102.834C1109.41 99.6096 1111.29 96.1914 1113.59 92.7874C1122.23 80.0763 1138.62 64.9395 1168.22 64.9395C1168.51 64.9395 1168.9 64.9395 1169.19 64.9395C1190.83 65.1335 1208.68 72.799 1220.81 86.9655C1233.37 101.572 1237.54 120.728 1236.16 133.913C1236.04 135.027 1235.93 136.125 1235.83 137.24C1235.21 143.881 1231.61 168.976 1211.88 186.519C1200.82 196.371 1186.56 202.234 1169.37 204.076C1156.39 205.468 1145.12 215.399 1145.12 228.461V245.854C1145.12 248.56 1147.32 250.754 1150.02 250.754V250.754C1152.73 250.754 1154.92 248.56 1154.92 245.854V214.173C1154.92 213.905 1155.14 213.688 1155.41 213.688V213.688C1155.51 213.688 1167.34 214.658 1181.8 211.65C1195.1 208.933 1213.53 202.141 1225.47 185.646C1246.81 155.955 1247.1 139.168 1247.3 126.845C1247.3 125.875 1247.3 124.905 1247.4 123.934V123.934C1247.34 122.611 1248.4 121.509 1249.73 121.509H1261.37C1261.64 121.509 1261.85 121.726 1261.85 121.994V121.994C1261.85 122.285 1264.18 152.558 1238.95 186.616C1223.38 207.576 1205.13 221.105 1187.62 224.843C1187.36 224.9 1187.1 224.726 1187.04 224.458V224.458C1186.99 224.19 1187.16 223.93 1187.43 223.874C1204.75 220.231 1222.8 206.8 1238.18 186.034C1256.31 161.653 1260.09 139.197 1260.83 128.579C1261.06 125.24 1258.31 122.576 1254.96 122.576H1249.82C1249.04 122.576 1248.41 123.244 1248.46 124.031V124.031C1248.46 125.002 1248.46 125.972 1248.37 126.942C1248.17 139.362 1247.98 156.343 1226.44 186.228C1214.31 203.015 1195.68 209.807 1182.19 212.621C1179.77 213.112 1177.42 213.498 1175.19 213.799C1164.9 215.187 1155.99 223.522 1155.99 233.903V245.854C1155.99 249.096 1153.36 251.724 1150.12 251.724V251.724C1146.88 251.724 1144.25 249.096 1144.25 245.854V203.694C1144.25 203.426 1144.47 203.209 1144.74 203.209V203.209C1173.07 205.731 1195.39 199.813 1211.2 185.84C1233.71 165.852 1234.98 135.869 1234.98 135.578C1236.82 122.576 1232.94 102.685 1220.03 87.6447C1208 73.7693 1190.44 66.2009 1169.09 66.0068C1139.3 65.7157 1122.9 80.6585 1114.37 93.3696C1105.46 106.543 1103.03 119.893 1102.75 121.126C1102.73 121.192 1102.71 121.253 1102.7 121.319V121.319C1102.65 121.488 1102.5 121.606 1102.33 121.606L1059.79 121.69C1056.22 121.697 1053.33 118.812 1053.33 115.25V112.261C1053.33 110.676 1052.14 109.346 1050.57 109.174V109.174C1048.73 108.973 1047.12 110.412 1047.11 112.26C1047.1 114.709 1047.09 117.997 1047.08 121.283C1047.07 127.387 1052.02 132.279 1058.12 132.279H1088.9C1101.27 132.279 1111.14 122.219 1115.61 110.684C1116.36 108.755 1117.23 106.787 1118.25 104.819C1124.85 92.0111 1139.01 76.5832 1168.9 76.001C1169.29 76.001 1169.67 76.001 1170.06 76.001C1202.96 76.001 1216.54 99.9677 1220.91 110.35C1228.09 127.33 1226.24 147.513 1216.15 164.105C1208.97 175.943 1192.28 193.7 1157.25 193.7V193.7C1146.21 193.7 1136.2 201.889 1136.2 212.931V316.149C1136.2 328.852 1146.5 339.149 1159.2 339.149H1187.19C1187.48 339.149 1187.72 339.388 1187.72 339.683V339.925C1187.72 340.086 1187.85 340.216 1188.01 340.216V340.216Z" fill="#EB7926"/>
<path d="M1201.6 339.731V339.731C1201.06 339.731 1200.63 339.297 1200.63 338.761V252.754C1200.63 252.548 1200.77 252.368 1200.97 252.318V252.318C1201 252.31 1201.01 252.306 1201.05 252.296C1202.01 251.995 1224.41 245.874 1246.52 227.952C1267.29 211.165 1291.93 180.309 1291.93 128.495C1291.93 87.8389 1275.44 55.1395 1244.39 33.9867C1218.67 16.5211 1187.82 10.3111 1169.19 10.3111C1142.09 10.3111 1077.11 17.1137 1054.42 79.6646C1053.81 81.3265 1053.27 83.0716 1052.8 84.7763C1051.91 88.0187 1050.42 93.891 1049.61 99.7899C1049.58 100.051 1049.34 100.238 1049.08 100.212V100.212C1048.8 100.184 1048.61 99.9368 1048.64 99.6644C1049.46 93.6335 1050.98 87.6341 1051.87 84.3885C1052.31 82.7503 1052.83 81.0695 1053.41 79.4726C1076.26 16.2492 1141.79 9.43787 1169.19 9.43787C1188.01 9.43787 1219.06 15.6479 1244.97 33.3075C1276.41 54.6543 1293 87.6449 1293 128.592C1293 180.795 1268.06 211.942 1247.2 228.825C1236.77 237.284 1226.27 243.124 1217.95 246.97C1208.6 251.294 1201.69 260.299 1201.69 270.603V339.634C1201.69 339.688 1201.65 339.731 1201.6 339.731V339.731Z" fill="#EB7926"/>
<path d="M1194.42 283.065C1194.42 283.333 1194.2 283.55 1193.93 283.55V283.55C1193.66 283.55 1193.45 283.333 1193.45 283.065L1193.54 244.889C1193.54 244.686 1193.68 244.509 1193.88 244.46V244.46C1193.91 244.451 1193.95 244.446 1193.98 244.44C1194.8 244.316 1205.4 242.429 1219.06 235.035C1232.06 227.952 1250.6 214.367 1264.86 189.43C1281.41 160.515 1282.09 137.037 1281.71 129.076C1281.61 127.137 1281.39 125.184 1281.22 123.25C1278.25 89.5239 1264.56 63.1541 1240.41 44.8541C1214.41 25.1569 1184.52 20.9845 1168.99 20.2083C1156.87 19.6261 1135.71 21.6637 1116.21 29.3292C1089.88 39.6493 1072.27 57.1598 1064.06 81.289C1063.98 81.5294 1063.71 81.6609 1063.47 81.5805V81.5805C1063.23 81.5001 1063.1 81.2376 1063.18 80.9968C1071.5 56.5785 1089.3 38.9695 1115.92 28.4559C1135.62 20.6934 1156.87 18.6558 1169.09 19.238C1184.71 20.0142 1214.89 24.1865 1240.99 44.0779C1266.12 63.096 1280 90.6528 1282.42 126.069C1282.42 126.263 1286.21 154.014 1265.64 189.915C1251.28 215.047 1232.55 228.825 1219.35 235.908C1216.35 237.534 1213.5 238.894 1210.85 240.03C1201.6 244 1194.34 252.647 1194.36 262.712L1194.42 283.065Z" fill="#EB7926"/>
<path d="M1194.32 315.813C1194.32 324.414 1187.35 331.387 1178.75 331.387H1155.8C1155.53 331.387 1155.31 331.17 1155.31 330.902V330.902C1155.31 330.634 1155.53 330.416 1155.8 330.416H1178.26C1186.59 330.416 1193.35 323.661 1193.35 315.328V300.725C1193.35 300.457 1193.57 300.24 1193.83 300.24V300.24C1194.1 300.24 1194.32 300.457 1194.32 300.725V315.813Z" fill="#EB7926"/>
<path d="M1155.31 330.902C1155.31 331.17 1155.1 331.387 1154.83 331.387H1150.12C1147.26 331.387 1144.93 329.063 1144.93 326.196V268.22C1144.93 265.219 1147.36 262.786 1150.36 262.786V262.786C1153.37 262.786 1155.8 265.219 1155.8 268.22V322.266C1155.8 322.534 1155.58 322.751 1155.31 322.751V322.751C1155.05 322.751 1154.83 322.534 1154.83 322.266V268.22C1154.83 265.754 1152.83 263.756 1150.36 263.756V263.756C1147.9 263.756 1145.9 265.754 1145.9 268.22V325.71C1145.9 328.309 1148.01 330.416 1150.61 330.416H1154.83C1155.1 330.416 1155.31 330.634 1155.31 330.902V330.902Z" fill="#EB7926"/>
<path d="M1087.97 100.599C1087.97 100.625 1087.95 100.647 1087.93 100.647H1071.09C1070.82 100.647 1070.61 100.43 1070.61 100.162V100.162C1071.19 81.9201 1078.66 69.8883 1084.87 63.0961C1087.27 60.4922 1089.61 58.4341 1091.66 56.8543C1094.41 54.7395 1094.88 50.4111 1092.26 48.1463L1088.95 45.2909C1088.73 45.1037 1088.71 44.7758 1088.9 44.5602V44.5602C1089.08 44.347 1089.41 44.324 1089.62 44.5087L1099.06 52.6202C1099.32 52.8424 1099.25 53.2587 1098.94 53.393V53.393C1098.67 53.481 1077.51 63.5407 1072.62 90.7332C1071.75 95.5712 1075.76 99.6768 1080.67 99.6768V99.6768C1084.72 99.6768 1088.2 96.8748 1089.49 93.0435C1092.02 85.5855 1097.16 74.0485 1106.2 67.9344C1108.41 66.4351 1109.14 63.1932 1107.3 61.2529V61.2529C1106.33 60.2388 1104.88 59.8332 1103.62 60.4358C1099.05 62.6188 1088.92 69.6052 1082.69 89.7735C1082.61 90.0404 1082.32 90.1998 1082.06 90.1196V90.1196C1081.79 90.0391 1081.64 89.7469 1081.72 89.4792C1090.1 62.3727 1105.06 58.7286 1105.73 58.5357V58.5357C1105.91 58.4764 1106.1 58.5248 1106.23 58.6601L1112.4 65.0857C1112.65 65.3436 1112.56 65.7692 1112.23 65.91V65.91C1094.68 72.0134 1088.76 99.0183 1088.56 100.128C1088.55 100.163 1088.55 100.18 1088.54 100.215L1088.51 100.344C1088.48 100.465 1088.37 100.55 1088.25 100.55H1088.02C1088 100.55 1087.97 100.572 1087.97 100.599V100.599Z" fill="#EB7926"/>
<path d="M1117.57 59.4088C1117.35 59.6255 1117 59.632 1116.78 59.4235L1095.91 40.0502C1095.71 39.8652 1095.7 39.5518 1095.89 39.3595V39.3595C1096.08 39.1769 1096.37 39.1716 1096.56 39.3475L1109.36 51.2592C1113.79 55.3779 1120.74 55.4997 1126.11 52.7137V52.7137C1131.83 49.8027 1141.34 46.2126 1154.73 45.3393C1175.83 43.8547 1192.02 46.7748 1201.83 50.5019C1205.25 51.7993 1209.31 50.7518 1211.17 47.6078V47.6078C1213.2 44.1841 1211.79 39.7838 1208.04 38.4534C1191.63 32.6322 1151.07 21.7875 1116.75 41.3963C1116.51 41.5349 1116.2 41.4517 1116.06 41.2075V41.2075C1115.93 40.9695 1116.01 40.6672 1116.25 40.5322C1160.71 15.1301 1215.38 40.1976 1215.96 40.4878V40.4878C1216.21 40.5897 1216.32 40.8951 1216.18 41.131L1208.44 54.1402C1208.31 54.363 1208.01 54.4216 1207.81 54.2662V54.2662C1199.85 49.3176 1181.22 44.272 1154.83 46.1156C1129.7 47.9592 1117.67 59.3118 1117.57 59.4088V59.4088Z" fill="#EB7926"/>
<path d="M1184.72 318.005C1184.72 318.27 1184.5 318.482 1184.24 318.482V318.482C1183.97 318.482 1183.75 318.259 1183.75 317.988L1185.19 236.296C1185.2 236.027 1185.41 235.811 1185.68 235.811V235.811C1213.53 235.617 1252.34 195.834 1263.5 164.687C1279.03 121.121 1266.41 90.6528 1253.12 72.7991C1243.95 60.3942 1233.14 52.1583 1226.46 47.7659C1223.25 45.6588 1219.01 46.8959 1217.16 50.2545V50.2545C1215.16 53.8563 1216.72 58.405 1220.29 60.4545C1231.16 66.6952 1250.58 81.2328 1254.04 106.901C1254.61 111.098 1257.98 114.544 1262.21 114.571L1269.42 114.616C1269.69 114.618 1269.91 114.835 1269.91 115.102V115.102C1269.91 115.371 1269.69 115.588 1269.42 115.587L1254.09 115.496C1253.82 115.494 1253.61 115.276 1253.61 115.008V115.008C1253.61 73.8665 1212.95 57.7593 1212.56 57.6623V57.6623C1212.3 57.5593 1212.2 57.2538 1212.33 57.011L1219.92 43.2933C1220.04 43.081 1220.3 42.9992 1220.52 43.1076V43.1076C1220.71 43.2047 1239.25 52.5196 1253.9 72.1199C1267.38 90.1677 1280.19 121.024 1264.47 164.979C1258.17 182.541 1245.16 200.88 1228.77 215.144C1221.46 221.559 1213.97 226.731 1206.89 230.41C1196.02 236.049 1186 246.384 1185.78 258.625L1184.72 318.005Z" fill="#EB7926"/>
<path d="M1176.56 318.482C1176.56 318.749 1176.35 318.967 1176.08 318.967H1163.85C1163.58 318.967 1163.37 318.749 1163.37 318.482V318.482L1164.92 233.094V233.094C1164.87 229.948 1167.4 227.369 1170.55 227.369H1170.89C1174.18 227.369 1176.85 230.04 1176.85 233.334V307.711C1176.85 307.979 1176.64 308.196 1176.37 308.196V308.196C1176.1 308.196 1175.88 307.979 1175.88 307.711V233.334C1175.88 230.576 1173.65 228.34 1170.89 228.34H1170.55C1167.94 228.34 1165.84 230.484 1165.89 233.094V233.094L1164.45 311.829C1164.39 315.217 1167.12 317.996 1170.51 317.996H1176.08C1176.35 317.996 1176.56 318.214 1176.56 318.482V318.482Z" fill="#EB7926"/>
<path d="M1229.84 26.176L1224.49 32.9568C1224.32 33.1672 1224.36 33.4723 1224.57 33.6382C1224.78 33.8041 1225.09 33.768 1225.25 33.5576L1230.6 26.7768C1230.77 26.5664 1230.73 26.2614 1230.52 26.0955C1230.31 25.9295 1230 25.9656 1229.84 26.176Z" fill="#EB7926"/>
<path d="M1227.02 128.98C1226.44 128.98 1225.85 128.98 1225.35 128.98C1225.09 128.98 1224.88 128.77 1224.88 128.51V128.51C1224.88 128.239 1225.11 128.024 1225.38 128.034C1226.84 128.087 1228.58 128.01 1230.32 128.01C1232.07 128.01 1233.91 127.93 1235.39 127.987C1235.65 127.997 1235.85 128.209 1235.85 128.465V128.465C1235.85 128.744 1235.61 128.965 1235.33 128.955C1233.88 128.903 1232.15 128.98 1230.42 128.98C1229.25 128.98 1228.09 128.98 1227.02 128.98Z" fill="#EB7926"/>
<path d="M1076.81 131.891V121.8C1076.81 121.532 1076.6 121.315 1076.33 121.315C1076.06 121.315 1075.84 121.532 1075.84 121.8V131.891C1075.84 132.159 1076.06 132.376 1076.33 132.376C1076.6 132.376 1076.81 132.159 1076.81 131.891Z" fill="#EB7926"/>
<path d="M1166.67 75.322V66.7833C1166.67 66.5153 1166.45 66.2981 1166.18 66.2981C1165.91 66.2981 1165.7 66.5153 1165.7 66.7833V75.322C1165.7 75.5899 1165.91 75.8072 1166.18 75.8072C1166.45 75.8072 1166.67 75.5899 1166.67 75.322Z" fill="#EB7926"/>
<path d="M1214.64 211.133L1208.16 202.652C1208 202.439 1207.69 202.398 1207.48 202.561C1207.27 202.723 1207.23 203.028 1207.39 203.241L1213.87 211.722C1214.03 211.935 1214.33 211.975 1214.55 211.813C1214.76 211.65 1214.8 211.346 1214.64 211.133Z" fill="#EB7926"/>
<path d="M1202.37 392.901C1202.37 405.603 1192.08 415.901 1179.37 415.901H1158.32C1145.62 415.901 1135.33 405.603 1135.33 392.901V365.348C1135.33 365.08 1135.54 364.862 1135.81 364.862V364.862C1136.08 364.862 1136.3 365.08 1136.3 365.348V391.93C1136.3 404.633 1146.59 414.93 1159.3 414.93H1178.4C1191.11 414.93 1201.4 404.633 1201.4 391.93V377.189C1201.4 364.486 1191.11 354.189 1178.4 354.189H1136.3C1136.03 354.189 1135.81 353.972 1135.81 353.704V353.704C1135.81 353.436 1136.03 353.219 1136.3 353.219H1179.37C1192.08 353.219 1202.37 363.516 1202.37 376.219V392.901Z" fill="#EB7926"/>
<path d="M1194.32 385.045C1194.32 396.245 1185.24 405.324 1174.04 405.324H1159.97C1151.66 405.324 1144.93 398.591 1144.93 390.285V390.285C1144.93 381.978 1151.66 375.245 1159.97 375.245H1175.74C1180.7 375.245 1184.71 379.263 1184.71 384.22V384.22C1184.71 389.177 1180.7 393.195 1175.74 393.195H1159.63C1157.25 393.195 1155.31 391.262 1155.31 388.878V388.878C1155.31 386.493 1157.25 384.56 1159.63 384.56H1174.14C1174.41 384.56 1174.62 384.777 1174.62 385.045V385.045C1174.62 385.313 1174.41 385.53 1174.14 385.53H1159.63C1157.78 385.53 1156.28 387.029 1156.28 388.878V388.878C1156.28 390.726 1157.78 392.225 1159.63 392.225H1175.74C1180.16 392.225 1183.74 388.641 1183.74 384.22V384.22C1183.74 379.799 1180.16 376.215 1175.74 376.215H1159.97C1152.2 376.215 1145.9 382.514 1145.9 390.285V390.285C1145.9 398.055 1152.2 404.354 1159.97 404.354H1174.04C1184.7 404.354 1193.35 395.709 1193.35 385.045V385.045C1193.35 374.381 1184.7 365.736 1174.04 365.736H1136.3C1136.03 365.736 1135.81 365.519 1135.81 365.251V365.251C1135.81 364.983 1136.03 364.765 1136.3 364.765H1174.04C1185.24 364.765 1194.32 373.845 1194.32 385.045V385.045Z" fill="#EB7926"/>
<path d="M1157.35 414.931V405.324C1157.35 405.056 1157.13 404.839 1156.87 404.839C1156.6 404.839 1156.38 405.056 1156.38 405.324V414.931C1156.38 415.198 1156.6 415.416 1156.87 415.416C1157.13 415.416 1157.35 415.198 1157.35 414.931Z" fill="#EB7926"/>
<path d="M1201.4 381.552H1194.32C1194.05 381.552 1193.83 381.769 1193.83 382.037C1193.83 382.305 1194.05 382.522 1194.32 382.522H1201.4C1201.67 382.522 1201.89 382.305 1201.89 382.037C1201.89 381.769 1201.67 381.552 1201.4 381.552Z" fill="#EB7926"/>
<path d="M1164.34 384.074V376.215C1164.34 375.947 1164.12 375.73 1163.85 375.73C1163.58 375.73 1163.37 375.947 1163.37 376.215V384.074C1163.37 384.342 1163.58 384.56 1163.85 384.56C1164.12 384.56 1164.34 384.342 1164.34 384.074Z" fill="#EB7926"/>
<path d="M1144.93 390.09H1136.3C1136.03 390.09 1135.81 390.308 1135.81 390.576C1135.81 390.844 1136.03 391.061 1136.3 391.061H1144.93C1145.2 391.061 1145.42 390.844 1145.42 390.576C1145.42 390.308 1145.2 390.09 1144.93 390.09Z" fill="#EB7926"/>
<path d="M1265.06 119.374C1263.99 118.307 1262.34 117.822 1260.4 118.016L1248.37 117.822C1246.43 117.919 1244.58 117.433 1243.03 116.366C1241.48 115.396 1240.31 113.843 1239.73 112.097L1239.25 110.544C1238.27 107.439 1237.21 104.14 1236.04 101.035C1235.27 99.0946 1234.49 97.3481 1233.62 95.7956C1233.13 94.9223 1232.65 94.146 1232.16 93.3698C1231.68 92.4965 1231.09 91.7203 1230.61 90.944C1222.46 78.9122 1210.52 69.5972 1197.04 64.7457C1185.3 60.4763 1172.2 59.1178 1159 60.7674C1153.28 61.4466 1147.65 62.805 1142.12 64.6486L1138.24 66.0071C1137.46 66.2981 1136.59 66.6863 1135.81 66.9774C1135.42 67.1714 1134.94 67.3655 1134.55 67.5595C1132.22 68.5299 1129.89 69.7913 1127.66 71.1497C1123.49 73.6725 1119.8 76.7775 1116.6 80.2706C1115.14 81.9201 1113.78 83.6667 1112.52 85.4132C1111.46 86.9657 1110.48 88.6153 1109.32 90.6529C1107.87 93.2728 1106.6 95.6985 1105.34 98.1243C1104.95 98.9006 1104.57 99.6768 1104.18 100.356C1103.89 100.841 1103.6 101.423 1103.3 101.909C1102.04 104.237 1100.98 106.372 1099.62 108.216C1095.83 113.552 1091.76 115.299 1090.21 115.784C1089.86 115.923 1089.56 116.012 1089.24 116.087C1088.98 116.149 1088.73 116.269 1088.46 116.269V116.269C1088.26 116.269 1088.07 116.366 1087.88 116.366C1087.59 116.366 1087.39 116.463 1087.1 116.463C1086.7 116.463 1086.43 116.489 1086.26 116.514C1086.11 116.536 1085.93 116.542 1085.82 116.644V116.644C1085.65 116.791 1085.72 117.099 1085.89 117.243C1085.96 117.3 1086.05 117.336 1086.13 117.336C1086.13 117.336 1086.13 117.336 1086.13 117.336C1086.13 117.336 1086.52 117.336 1087.2 117.336C1087.49 117.336 1087.68 117.239 1088.07 117.239C1088.26 117.239 1088.46 117.142 1088.65 117.142V117.142C1088.92 117.142 1089.17 117.013 1089.43 116.952C1089.74 116.879 1090.1 116.791 1090.5 116.657C1092.15 116.172 1096.42 114.328 1100.39 108.798C1101.75 106.954 1102.92 104.722 1104.18 102.394C1104.47 101.909 1104.76 101.326 1105.05 100.841C1105.44 100.065 1105.83 99.2887 1106.22 98.5124C1107.48 96.1837 1108.74 93.7579 1110.1 91.1381C1111.26 89.1004 1112.23 87.4509 1113.2 85.9954C1114.37 84.2489 1115.72 82.5023 1117.18 80.9498C1120.29 77.5537 1123.88 74.5458 1128.05 72.023C1130.18 70.6645 1132.51 69.5002 1134.84 68.5299C1135.23 68.3358 1135.71 68.1417 1136.1 67.9477C1136.88 67.6566 1137.65 67.2685 1138.43 66.9774L1142.21 65.6189C1147.65 63.8724 1153.18 62.5139 1158.81 61.8347C1171.81 60.1852 1184.71 61.5436 1196.26 65.813C1209.55 70.6645 1221.29 79.8825 1229.25 91.6232C1229.74 92.3025 1230.32 93.1757 1230.8 93.952C1231.29 94.7282 1231.77 95.5045 1232.26 96.3778C1233.13 97.9303 1233.81 99.5798 1234.59 101.52C1235.75 104.528 1236.72 107.633 1237.79 110.932L1238.27 112.485C1238.95 114.426 1240.31 116.172 1242.06 117.336C1243.71 118.501 1245.84 119.083 1248.07 118.986L1260.2 119.18C1261.08 119.083 1262.82 119.18 1263.89 120.247C1264.96 121.218 1265.06 122.77 1265.06 123.935C1265.06 124.002 1265.06 124.068 1265.06 124.133C1265.05 125.102 1264.96 126.071 1264.91 127.04V127.04C1264.86 128.008 1264.77 128.977 1264.76 129.946C1264.76 130.011 1264.76 130.077 1264.76 130.145C1264.67 131.115 1264.57 132.085 1264.47 133.055C1263.79 139.071 1262.63 145.184 1260.88 151.2C1257.49 163.329 1252.15 175.07 1245.16 186.034C1240.89 192.827 1236.24 198.745 1231.39 203.888C1229.06 206.314 1226.53 208.74 1223.23 211.359C1220.52 213.494 1217.51 215.629 1214.21 217.569C1208.39 220.966 1201.99 223.779 1194.51 226.302L1193.16 226.787C1191.99 227.176 1190.73 227.564 1189.47 227.952L1186.95 228.728C1185.98 229.019 1185.1 229.407 1184.42 229.892C1182.87 230.863 1181.51 232.415 1180.83 234.162C1180.44 235.035 1180.25 235.908 1180.15 236.879C1180.15 237.558 1180.15 238.14 1180.15 238.722C1180.15 239.013 1180.15 239.207 1180.15 239.498C1180.15 259.293 1179.67 278.02 1179.28 296.165C1179.09 303.248 1178.89 310.234 1178.79 317.026C1178.79 318.676 1178.89 320.131 1179.28 321.587C1179.67 323.042 1180.15 324.595 1181.51 325.662C1182.77 326.632 1184.62 326.826 1186.17 326.05C1186.95 325.662 1187.53 325.177 1188.01 324.595C1188.5 324.012 1188.79 323.43 1189.08 322.557C1189.95 320.131 1190.05 317.608 1190.15 315.28V314.212C1190.24 311.592 1190.15 308.973 1190.15 306.45V305.382C1190.15 302.957 1190.15 300.628 1190.15 298.396V298.008C1190.24 295.679 1190.24 293.254 1190.73 291.022C1190.83 290.537 1191.02 289.955 1191.31 289.566C1191.6 289.178 1192.09 288.887 1192.57 288.693C1193.16 288.402 1194.51 287.917 1195.48 288.596C1196.16 289.081 1196.55 289.955 1196.75 291.313C1196.84 292.089 1196.84 292.866 1196.75 293.642C1196.75 294.03 1196.75 294.321 1196.75 294.709L1196.16 339.829C1196.07 340.993 1195.97 342.06 1196.16 343.031C1196.36 344.292 1196.65 345.262 1197.33 346.039C1197.72 346.427 1198.2 346.718 1198.78 346.815C1199.27 346.912 1199.75 346.912 1200.14 346.912C1201.01 347.009 1201.89 347.009 1202.76 347.009C1202.96 347.009 1203.15 347.009 1203.34 347.009C1206.16 347.009 1208.68 346.912 1210.62 346.815L1216.15 346.621C1217.32 346.524 1217.9 346.524 1217.9 346.524C1217.9 346.524 1217.9 346.524 1217.9 346.524C1217.99 346.524 1218.09 346.477 1218.15 346.406C1218.27 346.261 1218.21 346.027 1218.07 345.905V345.905C1217.92 345.783 1217.7 345.747 1217.51 345.754C1217.23 345.764 1216.74 345.787 1216.05 345.844L1210.33 346.039C1208.29 346.136 1205.67 346.136 1202.66 346.136C1201.79 346.136 1201.01 346.136 1200.14 346.039C1200.04 346.039 1199.85 346.039 1199.75 346.039C1199.07 346.039 1198.3 345.941 1197.91 345.456C1197.42 344.874 1197.13 344.098 1197.04 343.031C1196.99 342.576 1196.97 342.121 1196.97 341.646C1196.99 340.495 1197.14 339.347 1197.16 338.196L1197.81 294.709C1197.81 294.418 1197.81 294.03 1197.81 293.642C1197.81 293.357 1197.81 293.059 1197.81 292.754C1197.81 291.665 1197.83 290.555 1197.51 289.515C1197.48 289.431 1197.45 289.351 1197.42 289.275C1197.13 288.499 1196.65 288.014 1196.16 287.626C1196.03 287.534 1195.88 287.453 1195.72 287.384C1194.73 286.944 1193.55 287.101 1192.54 287.484C1192.42 287.528 1192.3 287.576 1192.19 287.626C1191.51 287.917 1190.92 288.305 1190.54 288.887C1190.05 289.469 1189.86 290.149 1189.76 290.828C1189.27 293.157 1189.18 295.582 1189.18 298.008V298.493C1189.18 300.822 1189.18 303.151 1189.18 305.674V306.644C1189.18 309.167 1189.18 311.787 1189.18 314.309V315.28C1189.08 317.608 1188.98 320.034 1188.21 322.266C1187.72 323.624 1186.85 324.595 1185.78 325.08C1184.62 325.662 1183.26 325.565 1182.29 324.789C1181.22 323.915 1180.74 322.363 1180.44 321.296C1180.15 320.034 1180.06 318.579 1180.06 317.026C1180.15 310.428 1180.35 303.636 1180.54 296.65C1181.03 278.408 1181.51 259.584 1181.51 239.498C1181.51 239.207 1181.51 239.013 1181.51 238.722C1181.51 238.14 1181.51 237.558 1181.51 236.976C1181.61 236.199 1181.8 235.326 1182.09 234.647C1182.77 233.191 1183.84 231.833 1185.2 230.96C1185.88 230.572 1186.56 230.183 1187.43 229.989L1189.95 229.213C1191.21 228.825 1192.48 228.437 1193.64 228.049L1195 227.564C1202.57 225.041 1209.07 222.13 1214.99 218.734C1218.29 216.793 1221.39 214.659 1224.21 212.427C1227.5 209.71 1230.22 207.284 1232.45 204.858C1237.4 199.716 1242.06 193.7 1246.43 186.811C1253.51 175.749 1258.85 163.814 1262.34 151.588C1264.09 145.475 1265.25 139.265 1265.93 133.25C1266.03 132.279 1266.12 131.309 1266.22 130.242C1266.22 129.659 1266.32 129.174 1266.32 128.592C1266.41 127.622 1266.41 126.651 1266.41 125.681C1266.41 125.099 1266.41 124.614 1266.51 124.032C1266.61 122.867 1266.51 120.83 1265.06 119.374Z" fill="#1C3687"/>
</g>
<ellipse cx="1056" cy="371.5" rx="61" ry="13.5" fill="#FFE8DA"/>
<path d="M998.118 162.861C1000.1 153.404 1006.52 144.914 1012.56 138.725C1015.62 135.578 1018.58 133.04 1020.76 131.289C1021.85 130.414 1022.75 129.736 1023.38 129.278C1023.56 129.149 1023.71 129.038 1023.84 128.944L1032.81 151.579C1032.73 151.619 1032.65 151.663 1032.57 151.713C1032.16 151.94 1031.59 152.274 1030.89 152.704C1029.5 153.563 1027.63 154.806 1025.71 156.344C1022.06 159.261 1018.1 163.321 1016.99 167.899C1009.74 164.372 1002.45 163.227 998.118 162.861Z" fill="#EB7926" stroke="black"/>
<path d="M1109.88 139.253C1101.95 143.636 1092.35 146.939 1080.75 148.375L1080.42 148.415L1080.33 148.73L1080.81 148.871C1080.33 148.73 1080.33 148.731 1080.33 148.731L1080.33 148.733L1080.33 148.74L1080.32 148.767L1080.29 148.875L1080.16 149.296C1080.05 149.667 1079.89 150.212 1079.69 150.913C1079.28 152.314 1078.7 154.335 1077.99 156.816C1076.56 161.778 1074.63 168.579 1072.6 175.936C1068.59 190.482 1064.18 207.23 1062.57 216.205C1062.41 216.261 1062.18 216.34 1061.9 216.438C1061.28 216.645 1060.38 216.936 1059.24 217.27C1056.96 217.939 1053.72 218.779 1049.9 219.465C1042.33 220.823 1032.49 221.569 1023.24 219.215C1023.23 219.151 1023.22 219.078 1023.21 218.996C1023.17 218.628 1023.11 218.083 1023.03 217.373C1022.88 215.954 1022.68 213.878 1022.45 211.253C1022.01 206.004 1021.48 198.563 1021.19 189.795C1020.6 172.344 1020.91 149.659 1024.49 128.56C1024.7 128.511 1024.99 128.439 1025.38 128.348C1026.16 128.163 1027.3 127.9 1028.75 127.584C1031.65 126.953 1035.78 126.116 1040.66 125.291C1050.44 123.641 1063.25 122.045 1075.41 122.245C1082.86 122.378 1091.46 120.983 1099.94 118.388C1101.25 123.735 1104.09 132.306 1109.88 139.253Z" fill="#EB7926" stroke="black"/>
<path d="M1127.44 104.836C1134.98 99.1402 1140.65 92.2727 1142.55 84.6284C1142.61 84.609 1142.68 84.5877 1142.76 84.5664C1143.05 84.4914 1143.46 84.4185 1143.93 84.4269C1144.82 84.4429 1145.97 84.7455 1147.03 85.9311C1147.02 85.9803 1147.01 86.0376 1147 86.1028C1146.96 86.3631 1146.89 86.7491 1146.8 87.248C1146.61 88.2457 1146.3 89.6944 1145.83 91.4907C1144.89 95.0837 1143.3 100.064 1140.71 105.605C1135.57 116.606 1126.51 129.798 1110.8 138.755C1105.05 131.943 1102.21 123.408 1100.93 118.09C1110.5 115.064 1119.93 110.514 1127.44 104.836Z" fill="white" stroke="black"/>
<path d="M1052.3 131.957L1046.89 220.128" stroke="black"/>
<path d="M1063.18 352.861C1063.18 352.861 1062.1 358.967 1061.57 365.007C1061.36 367.372 1063.18 369.419 1065.54 369.519C1073.58 369.855 1090.79 370.509 1096.96 370.224C1097.88 370.19 1098.49 369.234 1098.15 368.362C1097.87 367.64 1097.31 367.053 1096.61 366.735L1068.19 353.666L1063.18 352.861Z" fill="black"/>
<path d="M1064.15 356.416C1063.93 356.342 1063.75 356.274 1063.62 356.221L1062.84 349.691L1069.1 348.712L1070.96 356.076C1069.47 357.075 1067.67 357.138 1066.15 356.907C1065.35 356.786 1064.65 356.586 1064.15 356.416Z" fill="white" stroke="black"/>
<path d="M1062.94 212.064C1062.57 213.977 1060.93 307.165 1070.89 348.936C1071.06 349.624 1070.71 350.311 1070.06 350.58C1068.53 351.2 1065.53 352.106 1061.94 352.224C1060.83 352.257 1059.82 351.536 1059.52 350.479C1056.67 340.783 1043.03 292.235 1041.25 245.85C1039.26 194.031 1041.25 244.089 1041.25 244.089L1042.43 212.048L1062.94 212.064Z" fill="#1C3687"/>
<path d="M1030.48 356.032C1030.48 356.032 1028.77 359.119 1027.11 367.305C1026.81 368.781 1027.85 370.191 1029.34 370.341C1031.99 370.61 1036.08 370.945 1039.36 370.912C1040.86 370.895 1042.04 369.587 1041.85 368.094C1041.49 365.108 1040.36 360.209 1036.87 356.384L1030.48 356.032Z" fill="black"/>
<path d="M1031.45 357.386L1029.56 347.119L1035.53 346.748L1036.42 357.716C1034.73 358.121 1033.46 358.018 1032.61 357.817C1032.15 357.708 1031.81 357.569 1031.6 357.461C1031.54 357.433 1031.49 357.408 1031.45 357.386Z" fill="white" stroke="black"/>
<path d="M1023.52 214.916C1015.37 264.085 1025.28 336.455 1028.64 350.613C1028.84 351.486 1029.54 352.14 1030.41 352.291C1031.91 352.543 1034.36 352.744 1036.79 352.039C1037.63 351.805 1038.21 351.05 1038.25 350.177C1038.7 338.72 1037.9 268.43 1045.48 240.65C1045.86 239.241 1046.72 238.016 1047.91 237.161L1062.64 226.693L1063.76 209.766L1023.52 214.916Z" fill="#11286F"/>
<path d="M1146.71 87.9374L1146.71 87.9374L1146.71 87.9374L1146.71 87.9374L1146.71 87.9374L1146.03 87.9414L1146.22 88.5302C1146.2 88.5517 1146.16 88.5865 1146.09 88.633C1145.92 88.7491 1145.62 88.8525 1145.25 88.8499C1144.55 88.8451 1143.57 88.4649 1142.78 87.0241C1142.76 86.6539 1142.7 86.0892 1142.64 85.4291C1142.63 85.3266 1142.62 85.2218 1142.61 85.1151C1142.53 84.2347 1142.43 83.2021 1142.37 82.1804C1142.3 81.1562 1142.27 80.1564 1142.31 79.3395C1142.33 78.9307 1142.37 78.58 1142.42 78.3009C1142.48 78.0118 1142.55 77.8483 1142.61 77.7734C1145.11 74.3622 1148.79 70.5066 1151.87 67.4928C1153.4 65.9882 1154.78 64.6982 1155.77 63.7845C1156.27 63.3277 1156.67 62.9651 1156.94 62.7169C1156.96 62.7012 1156.98 62.6859 1156.99 62.6712C1157.39 63.2178 1157.4 63.7108 1157.31 64.0817C1157.26 64.3207 1157.17 64.5234 1157.08 64.6675C1157.04 64.7388 1157 64.7935 1156.98 64.8286C1156.97 64.8441 1156.96 64.8556 1156.95 64.863L1152.22 69.7995L1151.97 70.0651L1152.14 70.3872C1152.4 70.8447 1152.66 71.284 1152.93 71.7125C1152.95 71.7524 1152.97 71.7921 1153 71.8317C1153.24 72.2212 1153.47 72.6022 1153.69 72.9924C1154.18 73.8486 1154.6 74.7286 1154.87 75.7497C1155.26 77.2695 1155.03 78.8907 1154.25 80.2819C1153.42 81.7757 1152.29 83.7143 1151.24 85.224L1151.23 85.2251C1150.29 86.5825 1149.15 87.2581 1148.24 87.5971C1147.79 87.7671 1147.4 87.8525 1147.12 87.8952C1146.98 87.9165 1146.87 87.9271 1146.8 87.9324C1146.77 87.935 1146.74 87.9363 1146.72 87.9369L1146.71 87.9374L1146.71 87.9374ZM1146.23 88.5051C1146.23 88.5051 1146.23 88.5089 1146.23 88.5163C1146.23 88.5087 1146.23 88.505 1146.23 88.5051Z" fill="white" stroke="black"/>
<path d="M1148.41 83.748C1148.4 83.805 1148.39 83.8603 1148.38 83.9138L1145.4 80.6027L1146.61 77.3503L1150.56 73.9907C1150.77 74.1441 1150.89 74.3077 1150.94 74.4878C1151.01 74.7439 1150.97 75.1847 1150.52 75.9256C1150.24 76.3848 1149.96 77.1948 1149.7 78.086C1149.44 78.9997 1149.19 80.0637 1148.96 81.0721C1148.74 82.0816 1148.55 83.0412 1148.41 83.748Z" fill="white" stroke="black"/>
<path d="M1053.16 174.731L1056.12 180.202C1056.09 180.222 1056.05 180.244 1056.02 180.266C1055.72 180.471 1055.27 180.769 1054.7 181.139C1053.55 181.879 1051.89 182.907 1049.85 184.054C1045.78 186.35 1040.19 189.118 1034.14 191.025C1028.09 192.934 1021.62 193.965 1015.74 192.833C1009.9 191.706 1004.62 188.43 1000.91 181.645L1000.91 181.645C997.566 175.556 996.935 169.522 997.928 163.832C1002.22 164.186 1009.55 165.324 1016.79 168.898C1016.43 171.351 1016.93 173.906 1018.71 176.451C1020.98 179.693 1024.35 181.156 1028.07 181.548C1031.77 181.938 1035.85 181.271 1039.62 180.226C1043.39 179.18 1046.89 177.745 1049.44 176.574C1050.71 175.989 1051.75 175.468 1052.48 175.093C1052.75 174.95 1052.98 174.827 1053.16 174.731Z" fill="white" stroke="black"/>
<path d="M1050.77 192.512L1050.77 192.508L1064.75 143.708L1064.75 143.708L1064.75 143.702C1064.84 143.353 1065.16 143.088 1065.53 143.043L1065.53 143.043C1068.06 142.742 1075.39 141.92 1083.85 141.2C1094.06 140.344 1105.88 139.643 1112.91 140.227C1113.57 140.282 1113.95 140.984 1113.68 141.554C1111.66 145.629 1106.52 155.945 1100.84 166.596C1095.16 177.262 1088.96 188.221 1084.84 193.609L1084.84 193.61C1084.67 193.838 1084.38 193.983 1084.08 193.984C1084.08 193.984 1084.08 193.984 1084.08 193.984L1051.66 193.682H1051.65C1051.04 193.682 1050.6 193.093 1050.77 192.512Z" fill="white" stroke="black"/>
<path d="M1059.78 186.741L1059.78 186.745C1059.7 187.031 1059.91 187.327 1060.22 187.327H1060.22L1082.15 187.531C1082.15 187.531 1082.15 187.53 1082.16 187.53C1082.31 187.53 1082.45 187.455 1082.54 187.342L1082.54 187.341C1085.32 183.714 1089.5 176.326 1093.35 169.12C1097.19 161.929 1100.67 154.964 1102.03 152.213C1102.17 151.932 1101.97 151.578 1101.64 151.55L1059.78 186.741ZM1059.78 186.741L1069.23 153.784L1069.23 153.784M1059.78 186.741L1069.23 153.784M1069.23 153.784L1069.24 153.778M1069.23 153.784L1069.24 153.778M1069.24 153.778C1069.28 153.61 1069.44 153.474 1069.63 153.452L1069.63 153.451M1069.24 153.778L1069.63 153.451M1069.63 153.451C1071.34 153.248 1076.29 152.694 1082.01 152.207M1069.63 153.451L1082.01 152.207M1082.01 152.207C1088.92 151.629 1096.9 151.157 1101.64 151.55L1082.01 152.207Z" fill="white" stroke="black"/>
<path d="M1095.72 135.535L1095.72 135.535L1095.72 135.545L1094.71 138.581L1094.71 138.581L1094.71 138.59C1094.68 138.662 1094.62 138.719 1094.54 138.729L1094.54 138.729L1094.53 138.73L1084.78 140.038C1084.78 140.038 1084.78 140.038 1084.78 140.038C1084.63 140.059 1084.5 139.918 1084.53 139.758C1084.53 139.758 1084.53 139.758 1084.53 139.758L1085.15 137.113C1085.17 137.043 1085.24 136.967 1085.34 136.95L1095.47 135.257C1095.55 135.244 1095.63 135.277 1095.68 135.335C1095.73 135.39 1095.75 135.458 1095.72 135.535Z" fill="#EB7926" stroke="black"/>
<path d="M1079 140.78L1079 140.779C1079.04 140.552 1079.22 140.394 1079.44 140.378L1079.44 140.378L1079.45 140.377L1099.91 138.297C1099.91 138.297 1099.91 138.297 1099.91 138.297C1100.26 138.263 1100.54 138.574 1100.45 138.922L1100.45 138.923L1099.14 144.342L1099.14 144.342L1099.14 144.347C1099.09 144.566 1098.9 144.723 1098.69 144.731L1098.69 144.731L1098.68 144.732L1078.69 145.738L1078.69 145.738C1078.37 145.754 1078.1 145.47 1078.16 145.121L1079 140.78Z" fill="#EB7926" stroke="black"/>
<path d="M1066.93 169.028L1066.48 169.9L1068.61 171.554C1068.6 171.58 1068.6 171.607 1068.59 171.635C1068.52 171.85 1068.4 172.1 1068.22 172.301C1068.05 172.493 1067.81 172.647 1067.45 172.686C1067.09 172.727 1066.56 172.649 1065.8 172.277L1065.21 173.063L1067.17 175.214C1067.02 175.391 1066.81 175.605 1066.54 175.775C1066.28 175.943 1065.97 176.063 1065.61 176.07C1065.26 176.076 1064.82 175.972 1064.29 175.628L1064.29 175.628C1063.9 175.376 1063.49 175.277 1063.08 175.339C1062.69 175.398 1062.34 175.598 1062.03 175.836C1061.72 176.074 1061.41 176.381 1061.11 176.703C1061.01 176.811 1060.9 176.921 1060.8 177.032C1060.58 177.26 1060.37 177.493 1060.13 177.734C1058.79 179.079 1057.04 180.428 1054.07 180.123C1054.07 180.12 1054.07 180.118 1054.07 180.115C1054.02 179.893 1053.95 179.572 1053.86 179.178C1053.69 178.388 1053.48 177.308 1053.28 176.14C1053.09 174.972 1052.92 173.724 1052.85 172.598C1052.78 171.458 1052.82 170.497 1052.99 169.874C1053.38 168.467 1053.93 166.949 1054.96 165.876C1055.95 164.838 1057.42 164.168 1059.81 164.547C1062.31 164.944 1065.05 165.675 1067.17 166.31C1068.23 166.627 1069.13 166.919 1069.77 167.132C1070.01 167.213 1070.22 167.283 1070.38 167.338C1070.37 167.369 1070.36 167.402 1070.35 167.436C1070.27 167.729 1070.14 168.093 1069.9 168.416C1069.68 168.734 1069.36 169.007 1068.91 169.147C1068.46 169.287 1067.83 169.308 1066.93 169.028Z" fill="white" stroke="black"/>
<path d="M1042.43 124.793C1042.42 124.791 1042.42 124.789 1042.41 124.786L1049.95 111.187H1064.83L1062.45 122.679C1062.45 122.68 1062.45 122.68 1062.45 122.681C1062.35 123.147 1061.87 123.665 1061 124.01L1061 124.01C1051.97 127.582 1044.49 125.506 1042.44 124.796L1042.44 124.796L1042.43 124.793Z" fill="white" stroke="black"/>
<path d="M1037.41 125.576C1043.28 130.99 1057.83 137.989 1067.58 121.902" stroke="black"/>
<path d="M1073.5 96.7002C1072.4 91.7203 1069.63 89.2264 1069.63 89.2264C1067.31 79.9093 1063.09 70.9625 1050.37 73.4473C1040.1 75.4687 1035.33 85.3127 1037.66 94.634L1039.64 102.575C1040.79 107.181 1049.8 116.258 1061.23 113.405C1072.66 110.552 1074.66 101.908 1073.5 96.7002Z" fill="white" stroke="black" stroke-width="1.39" stroke-miterlimit="10"/>
<path d="M1043.06 93.1322C1043.06 93.1322 1039.46 89.0832 1036.91 91.9108C1034.35 94.7385 1038.94 106.599 1044.59 102.229" fill="white"/>
<path d="M1043.06 93.1322C1043.06 93.1322 1039.46 89.0832 1036.91 91.9108C1034.35 94.7385 1038.94 106.599 1044.59 102.229" stroke="black" stroke-width="1.39" stroke-miterlimit="10"/>
<path d="M1041.91 98.3047C1041.91 98.3047 1040.99 94.9512 1038.6 94.8352Z" fill="white"/>
<path d="M1041.91 98.3047C1041.91 98.3047 1040.99 94.9512 1038.6 94.8352" stroke="black" stroke-width="1.39" stroke-miterlimit="10"/>
<path d="M1061.82 75.1506C1057.51 72.3462 1051.24 77.5906 1052.93 83.8197C1054.62 90.0488 1047.28 92.6736 1047.28 92.6736L1048.29 96.7164L1045.15 97.4998L1041.95 92.1325C1041.95 92.1325 1039.14 89.5785 1036.91 91.9274C1031.1 86.1414 1036.48 81.7134 1036.48 81.7134C1036.48 81.7134 1040.15 66.7029 1054.5 68.6623C1068.85 70.6217 1066.67 80.8969 1066.67 80.8969C1066.67 80.8969 1066.12 77.9643 1061.82 75.1506Z" fill="black" stroke="black" stroke-width="1.39" stroke-miterlimit="10"/>
<path d="M1061.73 87.1761C1061.73 87.1761 1060.05 89.5688 1065.36 96.1299C1066.46 97.4892 1063.27 101.096 1060.99 98.4438" fill="white"/>
<path d="M1061.73 87.1761C1061.73 87.1761 1060.05 89.5688 1065.36 96.1299C1066.46 97.4892 1063.27 101.096 1060.99 98.4438" stroke="black" stroke-width="1.39" stroke-miterlimit="10"/>
<path d="M1065.08 88.7905L1065.36 88.7201C1065.87 88.5926 1066.39 88.9033 1066.52 89.414L1066.76 90.3801C1066.89 90.8908 1066.57 91.4081 1066.06 91.5356L1065.78 91.6059C1065.27 91.7334 1064.75 91.4227 1064.63 90.9121L1064.39 89.9459C1064.26 89.4353 1064.57 88.9179 1065.08 88.7905Z" fill="black"/>
<path d="M1068.1 84.6235C1067.03 83.3357 1064.26 83.6923 1063.54 85.509" stroke="black" stroke-width="1.39" stroke-miterlimit="10"/>
<path d="M1053.6 91.6552L1053.88 91.5848C1054.39 91.4573 1054.91 91.768 1055.04 92.2787L1055.28 93.2448C1055.41 93.7555 1055.1 94.2728 1054.59 94.4003L1054.3 94.4706C1053.79 94.5981 1053.28 94.2874 1053.15 93.7768L1052.91 92.8106C1052.78 92.3 1053.09 91.7826 1053.6 91.6552Z" fill="black"/>
<path d="M1056.32 87.8406C1055.25 86.5529 1052.48 86.9094 1051.77 88.7261" stroke="black" stroke-width="1.39" stroke-miterlimit="10"/>
<path d="M1061.46 104.347C1061.46 104.347 1056.79 106.791 1052.5 101.584Z" fill="white"/>
<path d="M1061.46 104.347C1061.46 104.347 1056.79 106.791 1052.5 101.584" stroke="black" stroke-width="1.39" stroke-miterlimit="10"/>
<path d="M1049.79 61.4824L1076.37 67.3967C1076.89 67.5128 1077.36 67.7921 1077.7 68.1933C1078.05 68.5945 1078.25 69.0962 1078.29 69.6246C1078.33 70.1529 1078.2 70.6798 1077.92 71.1275C1077.63 71.5752 1077.21 71.9199 1076.72 72.1109L1052.72 81.3826C1052.34 81.5299 1051.93 81.581 1051.52 81.5314L1024.61 78.1793C1024.09 78.1097 1023.6 77.874 1023.22 77.5067C1022.84 77.1395 1022.59 76.6602 1022.5 76.1393C1022.42 75.6184 1022.5 75.0835 1022.74 74.6132C1022.98 74.143 1023.37 73.7623 1023.84 73.5271L1048.17 61.6704C1048.67 61.4275 1049.24 61.3613 1049.79 61.4824V61.4824Z" fill="black"/>
</svg>
