<svg width="26" height="26" viewBox="0 0 26 26" fill="none" xmlns="http://www.w3.org/2000/svg">
<path d="M25.6823 24.1505L18.2886 16.7568C19.7208 14.9878 20.5831 12.7399 20.5831 10.2916C20.5831 4.61714 15.966 0 10.2915 0C4.61709 0 0 4.61709 0 10.2915C0 15.966 4.61714 20.5831 10.2916 20.5831C12.7399 20.5831 14.9878 19.7208 16.7568 18.2886L24.1505 25.6823C24.3618 25.8936 24.6391 25.9997 24.9164 25.9997C25.1938 25.9997 25.4711 25.8936 25.6824 25.6823C26.1059 25.2588 26.1059 24.5741 25.6823 24.1505ZM10.2916 18.4165C5.81094 18.4165 2.16666 14.7722 2.16666 10.2915C2.16666 5.81089 5.81094 2.16661 10.2916 2.16661C14.7722 2.16661 18.4165 5.81089 18.4165 10.2915C18.4165 14.7722 14.7722 18.4165 10.2916 18.4165Z" fill="white"/>
</svg>
