<svg width="48" height="39" viewBox="0 0 48 39" fill="none" xmlns="http://www.w3.org/2000/svg">
<path d="M46.403 6.84052C45.4449 5.83672 44.1217 5.24356 42.616 5.24356H35.0418V5.15231C35.0418 4.01162 34.5856 2.91657 33.8099 2.18653C33.0342 1.41086 31.9848 0.95459 30.8441 0.95459H17.1559C15.9696 0.95459 14.9202 1.41086 14.1445 2.18653C13.3688 2.96219 12.9125 4.01162 12.9125 5.15231V5.24356H5.38403C3.87833 5.24356 2.55513 5.83672 1.59696 6.84052C0.638783 7.7987 0 9.16752 0 10.6276V33.35C0 34.8557 0.593156 36.1789 1.59696 37.1371C2.55513 38.0953 3.92395 38.7341 5.38403 38.7341H42.616C44.1217 38.7341 45.4449 38.1409 46.403 37.1371C47.3612 36.1789 48 34.8101 48 33.35V10.6276C48 9.12189 47.4068 7.7987 46.403 6.84052ZM45.6274 33.35H45.5817C45.5817 34.1713 45.2624 34.9014 44.7148 35.4489C44.1673 35.9964 43.4373 36.3158 42.616 36.3158H5.38403C4.56274 36.3158 3.8327 35.9964 3.28517 35.4489C2.73764 34.9014 2.41825 34.1713 2.41825 33.35V10.6276C2.41825 9.8063 2.73764 9.07626 3.28517 8.52873C3.8327 7.9812 4.56274 7.66181 5.38403 7.66181H14.1901C14.8745 7.66181 15.4221 7.11429 15.4221 6.42988V5.10668C15.4221 4.60478 15.6046 4.14851 15.924 3.82911C16.2433 3.50972 16.6996 3.32721 17.2015 3.32721H30.8441C31.346 3.32721 31.8023 3.50972 32.1217 3.82911C32.4411 4.14851 32.6236 4.60478 32.6236 5.10668V6.42988C32.6236 7.11429 33.1711 7.66181 33.8555 7.66181H42.6616C43.4829 7.66181 44.2129 7.9812 44.7605 8.52873C45.308 9.07626 45.6274 9.8063 45.6274 10.6276V33.35Z" fill="white"/>
<path d="M23.9997 10.7646C20.8971 10.7646 18.0682 12.0422 16.0606 14.0498C14.0073 16.1031 12.7754 18.8863 12.7754 21.989C12.7754 25.0917 14.053 27.9205 16.0606 29.9282C18.1138 31.9814 20.8971 33.2133 23.9997 33.2133C27.1024 33.2133 29.9313 31.9358 31.9389 29.9282C33.9921 27.8749 35.2241 25.0917 35.2241 21.989C35.2241 18.8863 33.9465 16.0574 31.9389 14.0498C29.9313 12.0422 27.1024 10.7646 23.9997 10.7646ZM30.205 28.2399C28.6081 29.7913 26.418 30.7951 23.9997 30.7951C21.5815 30.7951 19.3914 29.7913 17.7944 28.2399C16.1974 26.643 15.2393 24.4529 15.2393 22.0346C15.2393 19.6164 16.2431 17.4262 17.7944 15.8293C19.3914 14.2323 21.5815 13.2742 23.9997 13.2742C26.418 13.2742 28.6081 14.278 30.205 15.8293C31.802 17.4262 32.7602 19.6164 32.7602 22.0346C32.8058 24.4529 31.802 26.643 30.205 28.2399Z" fill="white"/>
<path d="M40.2436 15.1905C41.4783 15.1905 42.4793 14.1895 42.4793 12.9547C42.4793 11.72 41.4783 10.719 40.2436 10.719C39.0088 10.719 38.0078 11.72 38.0078 12.9547C38.0078 14.1895 39.0088 15.1905 40.2436 15.1905Z" fill="white"/>
</svg>
