    <svg
      width="53"
      height="67"
      viewBox="0 0 53 67"
      fill="none"
      xmlns="http://www.w3.org/2000/svg"
    >
      <path
        fillRule="evenodd"
        clipRule="evenodd"
        d="M50.4535 22.9721V49.8021L26.5 64.0805L2.54649 49.8021V22.9721L0 21V51.3771L26.5 67L53 51.3771V21L50.4535 22.9721Z"
        fill="white"
      />
      <path
        fillRule="evenodd"
        clipRule="evenodd"
        d="M45.0181 20.0207V45.791L26.2183 56.9719L7.4185 45.791V20.0207L25.1038 30.5665L26.219 31.2799L27.3343 30.5665L45.0181 20.0207ZM47.1688 16.2144L26.2183 28.7428L5.26709 16.2151V47.0602L26.2183 59.5096L47.1688 47.0602V16.2144Z"
        fill="white"
      />
      <path
        fillRule="evenodd"
        clipRule="evenodd"
        d="M26.2182 25.2544L28.8464 23.668C28.5701 23.2164 28.1845 22.8416 27.7252 22.5783C27.2659 22.315 26.7476 22.1716 26.2182 22.1615C25.6854 22.1549 25.1606 22.2911 24.6982 22.5561C24.2359 22.821 23.853 23.205 23.5894 23.668L26.2182 25.2544Z"
        fill="white"
      />
      <path
        fillRule="evenodd"
        clipRule="evenodd"
        d="M19.2054 21.0519C19.954 19.9955 20.9454 19.1344 22.0961 18.541C23.2468 17.9476 24.5232 17.6392 25.8179 17.6418C27.1797 17.644 28.5195 17.9859 29.7159 18.6366C30.9122 19.2873 31.9273 20.2262 32.6691 21.3683L34.8198 20.097C33.8787 18.5952 32.5777 17.3521 31.0348 16.4801C29.4919 15.6082 27.7558 15.1351 25.9838 15.1037C24.2118 15.0722 22.46 15.4835 20.8871 16.3002C19.3143 17.1168 17.97 18.3131 16.9763 19.7805L19.2054 21.0519Z"
        fill="white"
      />
      <path
        fillRule="evenodd"
        clipRule="evenodd"
        d="M13.5548 17.7208C14.883 15.5565 16.7459 13.7704 18.9642 12.5344C21.1825 11.2984 23.6816 10.654 26.221 10.6634C28.757 10.671 31.2496 11.3225 33.4649 12.5569C35.6802 13.7913 37.5458 15.5682 38.8865 17.7208L41.1968 16.3732C39.6476 13.8082 37.4623 11.6867 34.8525 10.2142C32.2428 8.74158 29.297 7.96783 26.3004 7.96783C23.3039 7.96783 20.3581 8.74158 17.7484 10.2142C15.1386 11.6867 12.9533 13.8082 11.4041 16.3732L13.5548 17.7208Z"
        fill="white"
      />
      <path
        fillRule="evenodd"
        clipRule="evenodd"
        d="M7.4185 13.9951C9.38601 10.7738 12.1483 8.11204 15.4403 6.26523C18.7323 4.41842 22.4436 3.4485 26.2183 3.4485C29.993 3.4485 33.7043 4.41842 36.9963 6.26523C40.2884 8.11204 43.0506 10.7738 45.0181 13.9951L47.1688 12.7238C44.9809 9.1252 41.9052 6.14901 38.2367 4.08051C34.5682 2.012 30.4298 0.920541 26.2183 0.910756C21.9994 0.884266 17.8468 1.96054 14.1719 4.03294C10.497 6.10534 7.42738 9.10195 5.26709 12.7259L7.4185 13.9951Z"
        fill="white"
      />
    </svg>
