<svg width="14" height="24" viewBox="0 0 14 24" fill="none" xmlns="http://www.w3.org/2000/svg">
<path d="M2.1 0H11.9C13.0594 0 14 1.00781 14 2.25V21.75C14 22.9922 13.0594 24 11.9 24H2.1C0.940625 24 0 22.9922 0 21.75V2.25C0 1.00781 0.940625 0 2.1 0ZM7 22.5C7.77437 22.5 8.4 21.8297 8.4 21C8.4 20.1703 7.77437 19.5 7 19.5C6.22563 19.5 5.6 20.1703 5.6 21C5.6 21.8297 6.22563 22.5 7 22.5ZM2.1 17.4375C2.1 17.7469 2.33625 18 2.625 18H11.375C11.6637 18 11.9 17.7469 11.9 17.4375V2.8125C11.9 2.50312 11.6637 2.25 11.375 2.25H2.625C2.33625 2.25 2.1 2.50312 2.1 2.8125V17.4375Z" fill="#90A4AE"/>
</svg>
