<svg width="21" height="24" viewBox="0 0 21 24" fill="none" xmlns="http://www.w3.org/2000/svg">
<path d="M14.375 12V12.5H13.875H2.25C1.28395 12.5 0.5 13.284 0.5 14.25V21.75C0.5 22.716 1.28395 23.5 2.25 23.5H18.75C19.716 23.5 20.5 22.716 20.5 21.75V14.25C20.5 13.284 19.716 12.5 18.75 12.5H17.625H17.125V12V7.19535C17.125 3.52708 14.1775 0.5131 10.5217 0.500043C6.86118 0.48697 3.875 3.46419 3.875 7.12503V7.87503C3.875 8.22233 4.1527 8.50003 4.5 8.50003H6C6.3473 8.50003 6.625 8.22233 6.625 7.87503V7.12503C6.625 4.9773 8.38406 3.22853 10.5378 3.25006L10.5379 3.25006C12.6761 3.27166 14.375 5.04468 14.375 7.16722V12ZM10.5 21.5C9.18792 21.5 8.125 20.4371 8.125 19.125V16.875C8.125 15.5629 9.18792 14.5 10.5 14.5C11.8121 14.5 12.875 15.5629 12.875 16.875V19.125C12.875 20.4371 11.8121 21.5 10.5 21.5Z" stroke="#90A4AE"/>
</svg>
