<svg width="22" height="22" viewBox="0 0 22 22" fill="none" xmlns="http://www.w3.org/2000/svg">
<path d="M0.582451 20.8465L0.585672 20.7882L0.575358 20.7307C0.325788 19.3392 0.729889 17.231 1.71405 15.6271C2.2016 14.8325 2.81095 14.1962 3.5135 13.8275C4.20389 13.4652 5.00991 13.3466 5.94531 13.6219C6.30017 13.7264 6.64238 13.8364 6.97869 13.9445C7.96237 14.2608 8.89563 14.5608 9.9477 14.6584C11.3956 14.7928 13.0662 14.5552 15.5427 13.6094C16.6513 13.186 17.5667 13.2477 18.3198 13.5824C19.0863 13.9231 19.7348 14.5698 20.2474 15.3982C21.283 17.0719 21.6695 19.3332 21.4211 20.7315L21.4134 20.7749V20.819C21.4134 20.8945 21.3765 21.0592 21.2321 21.2039C21.0983 21.338 20.8261 21.5 20.2762 21.5H1.17472C1.06312 21.5 0.892477 21.4616 0.768918 21.3669C0.673688 21.2939 0.565142 21.16 0.582451 20.8465Z" stroke="#90A4AE"/>
<circle cx="10.6851" cy="6.34261" r="5.84261" stroke="#90A4AE"/>
</svg>
